# xmcd
#
# Track frame offsets:
#	150
#	25205
#	50572
#	76941
#	106664
#	134671
#	150199
#	168107
#
# Disc length: 2519 seconds
#
# Revision: 1
# Processed by: cddbd v1.5.2PL0 Copyright (c) Steve Scherf et al.
# Submitted via: audiograbber 1.83.01
#
DISCID=5309d508
DTITLE=SEVDALIS DIMITRIS [2005] - HABANA VIEJA
DYEAR=2005
DGENRE=
TTITLE0=PRIMERA NOCHE
TTITLE1=HABANA VIEJA
TTITLE2=FLOWER
TTITLE3=TESSERA
TTITLE4=BLUE CHA
TTITLE5=BOLERO VIEJO
TTITLE6=VALDEZ
TTITLE7=EL CUARTO DE LA TULA
EXTD=
EXTT0=
EXTT1=
EXTT2=
EXTT3=
EXTT4=
EXTT5=
EXTT6=
EXTT7=
PLAYORDER=
